<svg xmlns="http://www.w3.org/2000/svg" width="512" height="512" viewBox="0 0 512 512">
  <path d="M256,16C123.453,16,16,123.452,16,256S123.453,496,256,496,496,388.548,496,256,388.55,16,256,16Z" fill="#00b900"/>
  <path d="M434.169,238.319c0-79.738-79.928-144.613-178.169-144.613S77.833,158.581,77.833,238.319c0,71.482,63.382,131.354,149.008,142.68,5.863.793,12.986,3.35,15.389,9.186,1.845,4.49,1.48,11.16.878,15.715,0,0-2.079,12.574-2.538,15.256-.775,4.505-3.59,17.618,15.429,9.606s102.6-60.427,139.983-103.468l-.01,0C421.8,298.978,434.169,270.237,434.169,238.319Zm-237.96,39.369a3.277,3.277,0,0,1-3.274,3.279H145.917a3.257,3.257,0,0,1-2.265-.915c-.016-.015-.033-.029-.049-.044s-.029-.033-.044-.049a3.257,3.257,0,0,1-.915-2.265V203.879a3.277,3.277,0,0,1,3.279-3.274h11.636a3.277,3.277,0,0,1,3.279,3.274v58.9h32.1a3.277,3.277,0,0,1,3.274,3.279Zm28.708.005a3.277,3.277,0,0,1-3.279,3.274H210.017a3.276,3.276,0,0,1-3.279-3.274V203.879a3.277,3.277,0,0,1,3.279-3.274h11.621a3.277,3.277,0,0,1,3.279,3.274Zm81.315,0a3.277,3.277,0,0,1-3.279,3.274H291.148a3.286,3.286,0,0,1-.84-.112l-.046-.012c-.075-.021-.149-.045-.221-.071-.034-.012-.068-.024-.1-.037-.053-.021-.105-.044-.157-.068s-.1-.048-.156-.075l-.093-.052c-.069-.038-.136-.079-.2-.122l-.038-.026a3.244,3.244,0,0,1-.829-.809l-33.9-45.653v43.764a3.277,3.277,0,0,1-3.279,3.274h-11.6a3.277,3.277,0,0,1-3.279-3.274V203.879a3.277,3.277,0,0,1,3.279-3.274h11.806c.037,0,.073,0,.11.006.057,0,.114,0,.171.009s.116.013.174.021.091.013.137.021c.064.012.127.026.191.042.038.009.076.019.114.029.066.019.131.04.195.063l.1.038c.063.025.126.052.187.081.035.016.069.032.1.05.06.03.119.063.177.1l.1.06c.058.037.115.076.17.117l.087.065c.06.047.117.1.174.148l.061.055c.067.064.131.131.193.2l.021.023a3.276,3.276,0,0,1,.258.332l33.827,46.045V203.879a3.276,3.276,0,0,1,3.279-3.274h11.626a3.277,3.277,0,0,1,3.279,3.274Zm65.033-62.182a3.277,3.277,0,0,1-3.274,3.279H335.885v12.9h32.107a3.277,3.277,0,0,1,3.274,3.279V246.6a3.277,3.277,0,0,1-3.274,3.279H335.885v12.9h32.107a3.277,3.277,0,0,1,3.274,3.279v11.626a3.277,3.277,0,0,1-3.274,3.279H320.984a3.257,3.257,0,0,1-2.265-.915c-.016-.015-.033-.029-.049-.044s-.029-.033-.044-.049a3.257,3.257,0,0,1-.915-2.265V203.879a3.258,3.258,0,0,1,.907-2.257c.018-.019.034-.039.053-.057s.026-.023.039-.036a3.258,3.258,0,0,1,2.275-.924h47.008a3.277,3.277,0,0,1,3.274,3.279Z" fill="#fff"/>
</svg>
