<svg xmlns="http://www.w3.org/2000/svg" width="512" height="512" viewBox="0 0 512 512">
  <path d="M256,16.025c-132.548,0-240,107.452-240,240s107.452,240,240,240,240-107.452,240-240S388.548,16.025,256,16.025ZM387.252,191.66l.2,8.661c0,88.18-67.053,189.81-189.81,189.81A188.554,188.554,0,0,1,95.353,360.081,142.485,142.485,0,0,0,111.3,361a133.49,133.49,0,0,0,82.8-28.54,66.734,66.734,0,0,1-62.33-46.321,65.451,65.451,0,0,0,12.531,1.247,67.3,67.3,0,0,0,17.583-2.362,66.741,66.741,0,0,1-53.538-65.413v-.853a66.647,66.647,0,0,0,30.246,8.4,66.715,66.715,0,0,1-20.6-89.033,189.249,189.249,0,0,0,137.519,69.743,68.506,68.506,0,0,1-1.706-15.221A66.792,66.792,0,0,1,369.275,146.98a135.264,135.264,0,0,0,42.384-16.206,66.963,66.963,0,0,1-29.328,36.873,131.519,131.519,0,0,0,38.316-10.5A133.615,133.615,0,0,1,387.252,191.66Z" fill="#fff"/>
</svg>
